<svg width="512" height="512" viewBox="0 0 512 512" fill="none" xmlns="http://www.w3.org/2000/svg">
  <defs>
    <linearGradient id="bg" x1="0" y1="0" x2="512" y2="512" gradientUnits="userSpaceOnUse">
      <stop stop-color="#10D2A0"/>
      <stop offset="0.5" stop-color="#06B189"/>
      <stop offset="1" stop-color="#7C3AED"/>
    </linearGradient>
  </defs>
  <rect width="512" height="512" rx="120" fill="url(#bg)"/>
  <g fill="#06070B">
    <!-- QR-style corner finders -->
    <rect x="120" y="120" width="64" height="64" rx="14"/>
    <rect x="328" y="120" width="64" height="64" rx="14"/>
    <rect x="120" y="328" width="64" height="64" rx="14"/>
    <rect x="140" y="140" width="24" height="24" rx="6" fill="url(#bg)"/>
    <rect x="348" y="140" width="24" height="24" rx="6" fill="url(#bg)"/>
    <rect x="140" y="348" width="24" height="24" rx="6" fill="url(#bg)"/>
  </g>
  <!-- central lock / seal -->
  <g transform="translate(256 300)">
    <path d="M-46 -8a46 46 0 0 1 92 0v18a30 30 0 0 1 30 30v44a30 30 0 0 1-30 30h-92a30 30 0 0 1-30-30v-44a30 30 0 0 1 30-30z" fill="#06070B"/>
    <path d="M-26 6v-14a26 26 0 0 1 52 0v14" stroke="#10D2A0" stroke-width="14" fill="none" stroke-linecap="round"/>
    <circle cx="0" cy="56" r="12" fill="#10D2A0"/>
  </g>
</svg>
